<svg width="115" height="82" viewBox="0 0 115 82" fill="none" xmlns="http://www.w3.org/2000/svg">
<g id="Clip path group">
<mask id="mask0_69_1146" style="mask-type:luminance" maskUnits="userSpaceOnUse" x="0" y="0" width="115" height="82">
<g id="3cc507822a">
<path id="Vector" d="M0 0.437012H115V81.1452H0V0.437012Z" fill="white"/>
</g>
</mask>
<g mask="url(#mask0_69_1146)">
<g id="Group">
<g id="Clip path group_2">
<mask id="mask1_69_1146" style="mask-type:luminance" maskUnits="userSpaceOnUse" x="0" y="1" width="115" height="80">
<g id="53eeb62b54">
<path id="Vector_2" fill-rule="evenodd" clip-rule="evenodd" d="M14.0854 1.46427L22.5926 14.5623L22.7209 14.683C34.3809 21.557 45.5998 28.3753 57.1018 35.4876L57.4506 35.1038L39.1692 16.5802L39.1396 16.5493L24.169 5.5249L24.1064 5.49395L14.4639 1.07739L14.0854 1.46427ZM4.56788 56.1745L8.50718 56.4407L3.87348 50.7799L3.34034 50.9873L3.81096 54.723C3.81096 54.8127 3.78134 54.9303 3.65299 54.9613L0 56.5892L0.154676 57.0628L4.44282 56.2055C4.47244 56.2055 4.50535 56.2055 4.53497 56.2055L4.56788 56.1745ZM9.64257 60.4147L4.18942 61.8074L3.96892 61.9529L2.01408 64.7105L2.36292 65.1562L6.52272 63.9987L6.68069 63.9089L9.95851 60.8882L9.67219 60.4425L9.64257 60.4147ZM18.2781 56.7378L10.7747 55.5215L10.5246 55.9981L13.549 58.4277C13.6444 58.4865 13.674 58.6041 13.6444 58.7248L12.1306 62.25L12.6045 62.4883L15.1583 59.1086C15.1583 59.0807 15.1879 59.0807 15.2208 59.0498L18.3077 56.7378H18.2781ZM25.1793 52.086L8.19125 50.3064L8.06619 50.7799L19.1601 54.3082H19.3806L25.2089 52.5874L25.1464 52.086H25.1793ZM27.6673 50.8697L32.9625 51.4918C34.6968 49.7741 35.9869 48.5887 37.8463 46.9886L37.5962 46.5119L31.7974 47.3135L31.6691 47.3445L28.7072 48.8548L28.5493 49.0034L27.6673 50.8387V50.8697ZM19.2226 61.1544L26.1238 59.2262L26.2818 59.1395L31.702 54.1287L31.419 53.6861L22.3721 55.9981L22.1516 56.1467L18.8771 60.7396L19.2226 61.1822V61.1544ZM9.35955 68.0593L12.2589 68.4152C13.108 67.5548 13.7695 66.9637 14.6844 66.1621L14.4309 65.6885L11.5941 66.0754L11.4691 66.1033L9.98812 66.843L9.83016 66.9915L9.32664 68.0314L9.35955 68.0593ZM15.2504 71.3493L6.33185 70.4022L6.20679 70.8757L12.0384 72.742H12.2589L15.2833 71.8538L15.2208 71.3493H15.2504ZM15.5038 68.5328L21.8389 66.843L22.0265 66.7254L24.1064 64.237L23.7609 63.8501L15.3129 68.0902L15.5038 68.5328ZM29.1811 71.3493L28.3617 71.764C28.3288 71.764 28.2991 71.795 28.2662 71.795L21.4605 72.4449L21.24 72.5656L13.549 80.3898L13.8649 80.8323L26.8182 76.1806L26.9433 76.1218L35.9869 68.6226L35.6742 68.2079L29.4971 71.2317C29.4312 71.2595 29.3687 71.2595 29.3062 71.2595C29.2766 71.3183 29.2437 71.3802 29.1811 71.4081V71.3493ZM29.2436 70.7581L39.6431 64.562L39.4226 64.0884L31.1656 66.1621H31.1031L25.4294 66.4592L21.5855 71.3802L28.8981 70.9036L28.9606 70.8757C29.0232 70.8448 29.0857 70.8448 29.1482 70.8757C29.1811 70.8169 29.2107 70.786 29.2436 70.7581ZM57.6711 64.0296L41.0945 67.9417L41.157 68.4152L52.8466 68.0902L53.0671 68.0314L57.8916 64.5031L57.6382 64.0296H57.6711ZM56.4074 51.7889L47.5547 50.8109H47.4888L41.9139 48.9725L27.9503 61.3308L28.2037 61.8074L41.2821 58.9322L41.3446 58.9012L56.5028 52.3212L56.4074 51.7889ZM48.5321 48.5299L56.7233 49.7431H56.9142L61.4821 48.3504L61.4525 47.818L44.4973 45.178L44.2768 45.6546L48.4037 48.4401L48.5617 48.4989L48.5321 48.5299ZM59.8432 60.4425L60.192 52.6772L44.4348 59.7616L44.4973 60.294L52.2476 62.0426H52.4056L59.8432 60.4425ZM67.2512 55.7598L69.2982 48.8827L68.8243 48.6165L68.3207 49.0901C68.2911 49.121 68.2582 49.121 68.2582 49.152C68.2582 49.1798 68.2253 49.2108 68.1957 49.2108L62.239 54.8715L62.1436 55.0789L61.7355 60.622L62.2719 60.8294L67.2183 55.9083L67.3137 55.7598H67.2512ZM78.6906 46.0694L72.7636 50.3373L72.6385 50.4859L69.1106 58.4555C69.0777 58.4865 69.0777 58.5174 69.0448 58.5453L58.2997 66.7842L58.5827 67.2298L70.0847 62.7545L70.2131 62.6647L79.8556 52.7948L78.6906 46.0694ZM79.7602 39.0747L78.0291 32.1697L77.4598 32.1388L71.1247 48.3504L71.5689 48.6753L78.2167 44.2897L78.3418 44.1133L79.7602 39.2232V39.0437V39.0747ZM94.1648 30.8946L114.993 23.6925L114.868 23.219L92.5259 27.2796L94.1648 30.8946ZM96.0538 32.1697L85.1179 38.9849L84.7724 49.7153L85.3088 49.8329L89.3731 40.4086C89.3731 40.3777 89.4061 40.3498 89.4061 40.3498L96.3994 32.5845L96.0538 32.1976V32.1697ZM84.2688 30.3313L82.9755 32.3152C82.9426 32.3771 82.913 32.4049 82.8504 32.4049L81.59 32.8506C81.4945 32.8785 81.3695 32.8785 81.307 32.7918C81.2115 32.7021 81.2115 32.5535 81.307 32.4359C81.432 32.3152 81.5571 32.1388 81.6525 31.9624C81.715 31.7828 81.7776 31.6064 81.7776 31.3991C81.7776 31.1917 81.7479 31.0122 81.6525 30.8358C81.59 30.6563 81.4616 30.5077 81.307 30.3591C81.1786 30.2415 80.991 30.1239 80.8001 30.0342C80.6126 29.9754 80.4217 29.9166 80.2012 29.9166C79.9807 29.9166 79.7931 29.9444 79.6022 30.0342C79.4146 30.093 79.2567 30.2137 79.0987 30.3591C78.9736 30.4799 78.8486 30.6563 78.7532 30.8358C78.6906 31.0122 78.6281 31.1917 78.6281 31.3991C78.6281 31.6064 78.6577 31.7828 78.7532 31.9624C78.8157 32.1388 78.9407 32.2873 79.0987 32.4359C79.2271 32.5535 79.3817 32.6711 79.5397 32.733C79.6977 32.7918 79.8885 32.8506 80.0761 32.8506C80.1716 32.8506 80.267 32.9094 80.2966 32.9992C80.3592 33.1168 80.267 33.2654 80.1387 33.3242L79.8885 33.4139L81.4945 38.5114C84.1405 36.2304 86.6318 33.9184 89.2152 31.5476L90.1597 30.6563L89.9392 30.1518L84.2359 30.2725L84.2688 30.3313ZM73.8693 24.9058L82.156 27.1001H82.314L90.4756 25.7971L90.5085 25.2617L80.4546 22.9497H80.2966L73.9319 24.3734V24.9058H73.8693ZM65.3918 34.9831L77.3018 28.1091L71.5031 26.4471L67.4091 29.8268L67.3137 29.9444L64.9508 34.5993L65.3589 34.9552L65.3918 34.9831ZM66.4317 37.9481C66.3363 38.0069 66.2112 38.0069 66.1158 37.9481L57.1972 31.5755L56.8188 31.9314L64.286 40.3777C64.286 40.4086 64.3189 40.4086 64.3189 40.4365L68.0377 48.4989L75.9492 32.3771L75.5082 32.0212L66.3988 37.9171L66.4317 37.9481ZM37.4678 12.2225C45.8532 19.2172 53.9194 25.9147 63.121 32.2873L63.5324 31.9314L60.0637 27.0413L59.9715 26.9516L31.3235 6.50292L31.0076 6.85885C33.15 8.63537 35.3254 10.4429 37.4678 12.2225ZM62.9005 45.6825L36.8063 34.2434L36.4279 34.6272L41.7856 42.6587L62.7425 46.1282L62.9005 45.6546V45.6825ZM37.1552 25.0543L26.4397 20.4025L26.0909 20.8173L34.0978 31.0122L34.2558 31.1298L62.522 43.0765L62.7754 42.6587L37.2177 25.1162L37.1552 25.0853V25.0543Z" fill="white"/>
</g>
</mask>
<g mask="url(#mask1_69_1146)">
<g id="Group_2">
<path id="Vector_3" d="M0 1.07739V80.8323H114.993V1.07739H0Z" fill="url(#paint0_linear_69_1146)"/>
</g>
</g>
</g>
</g>
</g>
</g>
<defs>
<linearGradient id="paint0_linear_69_1146" x1="121.651" y1="13.4147" x2="-0.744322" y2="79.457" gradientUnits="userSpaceOnUse">
<stop stop-color="#FFDE59"/>
<stop offset="0.125" stop-color="#FFDE59"/>
<stop offset="0.1875" stop-color="#FFDE59"/>
<stop offset="0.21875" stop-color="#FFDE59"/>
<stop offset="0.234375" stop-color="#FFDE59"/>
<stop offset="0.242187" stop-color="#FFDE59"/>
<stop offset="0.246094" stop-color="#FFDC58"/>
<stop offset="0.25" stop-color="#FFDB58"/>
<stop offset="0.253906" stop-color="#FFDA58"/>
<stop offset="0.257812" stop-color="#FFD957"/>
<stop offset="0.261719" stop-color="#FFD757"/>
<stop offset="0.265625" stop-color="#FFD656"/>
<stop offset="0.269531" stop-color="#FFD556"/>
<stop offset="0.273438" stop-color="#FFD456"/>
<stop offset="0.277344" stop-color="#FFD255"/>
<stop offset="0.28125" stop-color="#FFD155"/>
<stop offset="0.285156" stop-color="#FFD054"/>
<stop offset="0.289062" stop-color="#FFCF54"/>
<stop offset="0.292969" stop-color="#FFCD53"/>
<stop offset="0.296875" stop-color="#FFCC53"/>
<stop offset="0.300781" stop-color="#FFCB53"/>
<stop offset="0.304688" stop-color="#FFCA52"/>
<stop offset="0.308594" stop-color="#FFC852"/>
<stop offset="0.3125" stop-color="#FFC751"/>
<stop offset="0.316406" stop-color="#FFC651"/>
<stop offset="0.320312" stop-color="#FFC550"/>
<stop offset="0.324219" stop-color="#FFC350"/>
<stop offset="0.328125" stop-color="#FFC250"/>
<stop offset="0.332031" stop-color="#FFC14F"/>
<stop offset="0.335938" stop-color="#FFC04F"/>
<stop offset="0.339844" stop-color="#FFBE4E"/>
<stop offset="0.34375" stop-color="#FFBD4E"/>
<stop offset="0.347656" stop-color="#FFBC4E"/>
<stop offset="0.351562" stop-color="#FFBB4D"/>
<stop offset="0.355469" stop-color="#FFB94D"/>
<stop offset="0.359375" stop-color="#FFB84C"/>
<stop offset="0.363281" stop-color="#FFB74C"/>
<stop offset="0.367187" stop-color="#FFB64B"/>
<stop offset="0.371094" stop-color="#FFB44B"/>
<stop offset="0.375" stop-color="#FFB34B"/>
<stop offset="0.378906" stop-color="#FFB24A"/>
<stop offset="0.382812" stop-color="#FFB14A"/>
<stop offset="0.386719" stop-color="#FFAF49"/>
<stop offset="0.390625" stop-color="#FFAE49"/>
<stop offset="0.394531" stop-color="#FFAD48"/>
<stop offset="0.398438" stop-color="#FFAC48"/>
<stop offset="0.402344" stop-color="#FFAA48"/>
<stop offset="0.40625" stop-color="#FFA947"/>
<stop offset="0.410156" stop-color="#FFA847"/>
<stop offset="0.414062" stop-color="#FFA646"/>
<stop offset="0.417969" stop-color="#FFA546"/>
<stop offset="0.421875" stop-color="#FFA446"/>
<stop offset="0.425781" stop-color="#FFA345"/>
<stop offset="0.429688" stop-color="#FFA145"/>
<stop offset="0.433594" stop-color="#FFA044"/>
<stop offset="0.4375" stop-color="#FF9F44"/>
<stop offset="0.441406" stop-color="#FF9E43"/>
<stop offset="0.445312" stop-color="#FF9C43"/>
<stop offset="0.449219" stop-color="#FF9B43"/>
<stop offset="0.453125" stop-color="#FF9A42"/>
<stop offset="0.457031" stop-color="#FF9942"/>
<stop offset="0.460938" stop-color="#FF9741"/>
<stop offset="0.464844" stop-color="#FF9641"/>
<stop offset="0.46875" stop-color="#FF9540"/>
<stop offset="0.472656" stop-color="#FF9440"/>
<stop offset="0.476562" stop-color="#FF9240"/>
<stop offset="0.480469" stop-color="#FF913F"/>
<stop offset="0.484375" stop-color="#FF903F"/>
<stop offset="0.488281" stop-color="#FF8F3E"/>
<stop offset="0.492187" stop-color="#FF8D3E"/>
<stop offset="0.496094" stop-color="#FF8C3E"/>
<stop offset="0.5" stop-color="#FF8B3D"/>
<stop offset="0.503906" stop-color="#FF8A3D"/>
<stop offset="0.507812" stop-color="#FF883C"/>
<stop offset="0.511719" stop-color="#FF873C"/>
<stop offset="0.515625" stop-color="#FF863B"/>
<stop offset="0.519531" stop-color="#FF853B"/>
<stop offset="0.523437" stop-color="#FF833B"/>
<stop offset="0.527344" stop-color="#FF823A"/>
<stop offset="0.53125" stop-color="#FF813A"/>
<stop offset="0.535156" stop-color="#FF8039"/>
<stop offset="0.539062" stop-color="#FF7E39"/>
<stop offset="0.542969" stop-color="#FF7D38"/>
<stop offset="0.546875" stop-color="#FF7C38"/>
<stop offset="0.550781" stop-color="#FF7B38"/>
<stop offset="0.554688" stop-color="#FF7937"/>
<stop offset="0.558594" stop-color="#FF7837"/>
<stop offset="0.5625" stop-color="#FF7736"/>
<stop offset="0.566406" stop-color="#FF7636"/>
<stop offset="0.570312" stop-color="#FF7436"/>
<stop offset="0.574219" stop-color="#FF7335"/>
<stop offset="0.578125" stop-color="#FF7235"/>
<stop offset="0.582031" stop-color="#FF7034"/>
<stop offset="0.585938" stop-color="#FF6F34"/>
<stop offset="0.589844" stop-color="#FF6E33"/>
<stop offset="0.59375" stop-color="#FF6D33"/>
<stop offset="0.597656" stop-color="#FF6B33"/>
<stop offset="0.601562" stop-color="#FF6A32"/>
<stop offset="0.605469" stop-color="#FF6932"/>
<stop offset="0.609375" stop-color="#FF6831"/>
<stop offset="0.613281" stop-color="#FF6631"/>
<stop offset="0.617187" stop-color="#FF6530"/>
<stop offset="0.621094" stop-color="#FF6430"/>
<stop offset="0.625" stop-color="#FF6330"/>
<stop offset="0.628906" stop-color="#FF612F"/>
<stop offset="0.632812" stop-color="#FF602F"/>
<stop offset="0.636719" stop-color="#FF5F2E"/>
<stop offset="0.640625" stop-color="#FF5E2E"/>
<stop offset="0.644531" stop-color="#FF5C2E"/>
<stop offset="0.648437" stop-color="#FF5B2D"/>
<stop offset="0.652344" stop-color="#FF5A2D"/>
<stop offset="0.65625" stop-color="#FF592C"/>
<stop offset="0.660156" stop-color="#FF572C"/>
<stop offset="0.664062" stop-color="#FF562B"/>
<stop offset="0.667969" stop-color="#FF552B"/>
<stop offset="0.671875" stop-color="#FF542B"/>
<stop offset="0.675781" stop-color="#FF522A"/>
<stop offset="0.679688" stop-color="#FF512A"/>
<stop offset="0.683594" stop-color="#FF5029"/>
<stop offset="0.6875" stop-color="#FF4F29"/>
<stop offset="0.691406" stop-color="#FF4D28"/>
<stop offset="0.695312" stop-color="#FF4C28"/>
<stop offset="0.699219" stop-color="#FF4B28"/>
<stop offset="0.703125" stop-color="#FF4A27"/>
<stop offset="0.707031" stop-color="#FF4827"/>
<stop offset="0.710938" stop-color="#FF4726"/>
<stop offset="0.714844" stop-color="#FF4626"/>
<stop offset="0.71875" stop-color="#FF4526"/>
<stop offset="0.722656" stop-color="#FF4325"/>
<stop offset="0.726562" stop-color="#FF4225"/>
<stop offset="0.730469" stop-color="#FF4124"/>
<stop offset="0.734375" stop-color="#FF4024"/>
<stop offset="0.738281" stop-color="#FF3E23"/>
<stop offset="0.742187" stop-color="#FF3D23"/>
<stop offset="0.746094" stop-color="#FF3C23"/>
<stop offset="0.75" stop-color="#FF3A22"/>
<stop offset="0.753906" stop-color="#FF3922"/>
<stop offset="0.757812" stop-color="#FF3821"/>
<stop offset="0.761719" stop-color="#FF3721"/>
<stop offset="0.765625" stop-color="#FF3520"/>
<stop offset="0.769531" stop-color="#FF3420"/>
<stop offset="0.773437" stop-color="#FF3320"/>
<stop offset="0.777344" stop-color="#FF321F"/>
<stop offset="0.78125" stop-color="#FF301F"/>
<stop offset="0.785156" stop-color="#FF2F1E"/>
<stop offset="0.789062" stop-color="#FF2E1E"/>
<stop offset="0.792969" stop-color="#FF2D1E"/>
<stop offset="0.796875" stop-color="#FF2B1D"/>
<stop offset="0.800781" stop-color="#FF2A1D"/>
<stop offset="0.804688" stop-color="#FF291C"/>
<stop offset="0.808594" stop-color="#FF281C"/>
<stop offset="0.8125" stop-color="#FF261B"/>
<stop offset="0.816406" stop-color="#FF251B"/>
<stop offset="0.820312" stop-color="#FF241B"/>
<stop offset="0.824219" stop-color="#FF231A"/>
<stop offset="0.828125" stop-color="#FF211A"/>
<stop offset="0.832031" stop-color="#FF2019"/>
<stop offset="0.835938" stop-color="#FF1F19"/>
<stop offset="0.839844" stop-color="#FF1E18"/>
<stop offset="0.84375" stop-color="#FF1C18"/>
<stop offset="0.847656" stop-color="#FF1B18"/>
<stop offset="0.851562" stop-color="#FF1A17"/>
<stop offset="0.855469" stop-color="#FF1917"/>
<stop offset="0.859375" stop-color="#FF1716"/>
<stop offset="0.863281" stop-color="#FF1716"/>
<stop offset="0.867187" stop-color="#FF1616"/>
<stop offset="0.875" stop-color="#FF1616"/>
<stop offset="1" stop-color="#FF1616"/>
</linearGradient>
</defs>
</svg>
