<svg width="65" height="64" viewBox="0 0 65 64" fill="none" xmlns="http://www.w3.org/2000/svg">
<path id="Vector" d="M63.4316 39.4024L51.6545 32.2995C51.3293 32.103 50.9566 31.9992 50.5766 31.9992C50.1967 31.9992 49.824 32.103 49.4988 32.2995L45.1479 34.9245L37.0838 29.5465L45.2972 24.5919C45.6052 24.4047 45.8601 24.1417 46.0375 23.828C46.2149 23.5143 46.3089 23.1603 46.3105 22.7999V9.20003C46.3098 8.83899 46.2163 8.48421 46.039 8.16968C45.8618 7.85515 45.6067 7.59142 45.2982 7.40378L33.5212 0.299855C33.196 0.103369 32.8233 -0.000488281 32.4433 -0.000488281C32.0634 -0.000488281 31.6906 0.103369 31.3654 0.299855L19.5894 7.40378C19.281 7.59142 19.0259 7.85515 18.8487 8.16968C18.6714 8.48421 18.5779 8.83899 18.5772 9.20003V22.7999C18.5779 23.1609 18.6714 23.5157 18.8487 23.8302C19.0259 24.1448 19.281 24.4085 19.5894 24.5961L27.8028 29.5507L19.7388 34.9245L15.3868 32.2995C15.0616 32.103 14.6889 31.9992 14.3089 31.9992C13.929 31.9992 13.5562 32.103 13.231 32.2995L1.45505 39.4034C1.14694 39.5914 0.89219 39.8552 0.71515 40.1697C0.53811 40.4841 0.444699 40.8388 0.443848 41.1997L0.443848 54.7995C0.444833 55.1607 0.538406 55.5155 0.715627 55.8302C0.892848 56.1448 1.1478 56.4088 1.45611 56.5969L13.2332 63.6997C13.5585 63.8959 13.9312 63.9995 14.311 63.9995C14.6909 63.9995 15.0636 63.8959 15.3889 63.6997L27.166 56.5958C27.4741 56.4079 27.7288 56.144 27.9059 55.8296C28.0829 55.5151 28.1763 55.1604 28.1772 54.7995V50.1329H36.7105V54.7995C36.7115 55.1607 36.8051 55.5155 36.9823 55.8302C37.1595 56.1448 37.4145 56.4088 37.7228 56.5969L49.4999 63.6997C49.8252 63.8959 50.1978 63.9995 50.5777 63.9995C50.9576 63.9995 51.3303 63.8959 51.6556 63.6997L63.4326 56.5958C63.7408 56.4079 63.9955 56.144 64.1726 55.8296C64.3496 55.5151 64.443 55.1604 64.4438 54.7995V41.1997C64.4429 40.8385 64.3493 40.4837 64.1721 40.169C63.9949 39.8544 63.7399 39.5904 63.4316 39.4024ZM50.5537 34.1267L61.6087 40.7954L50.5644 47.446L39.5425 40.7954L50.5537 34.1267ZM33.5105 29.2414V17.2949C33.5254 17.2863 33.5436 17.2831 33.5585 17.2746L44.1772 10.864L44.1942 22.7689L33.5105 29.2414ZM32.4204 2.12704L43.4753 8.79576L32.431 15.4474L21.4092 8.79576L32.4204 2.12704ZM20.6934 10.8555L31.3377 17.2799C31.3505 17.2874 31.3644 17.2895 31.3772 17.2959V29.2169L20.7105 22.7999L20.6934 10.8555ZM14.287 34.1267L25.342 40.7954L14.2977 47.446L3.27585 40.7954L14.287 34.1267ZM2.57718 54.7995L2.56118 42.853L13.2044 49.2796C13.2172 49.2871 13.231 49.2892 13.2438 49.2967V61.2165L2.57718 54.7995ZM15.3772 61.2411V49.2945C15.3921 49.286 15.4102 49.2839 15.4252 49.2743L26.0438 42.8637L26.0609 54.7697L15.3772 61.2411ZM28.1772 47.9996V41.1997C28.1762 40.8385 28.0826 40.4837 27.9054 40.169C27.7282 39.8544 27.4732 39.5904 27.1649 39.4024L21.759 36.1427L29.823 30.7689L31.3665 31.7C31.6918 31.8962 32.0645 31.9999 32.4444 31.9999C32.8243 31.9999 33.1969 31.8962 33.5222 31.7L35.0647 30.7689L43.1286 36.1427L37.7217 39.4034C37.4136 39.5914 37.1589 39.8552 36.9818 40.1697C36.8048 40.4841 36.7114 40.8388 36.7105 41.1997V47.9996H28.1772ZM38.8438 54.7995L38.8279 42.853L49.4711 49.2796C49.4839 49.2871 49.4977 49.2892 49.5105 49.2967V61.2165L38.8438 54.7995ZM51.6439 61.2411V49.2945C51.6588 49.286 51.6769 49.2839 51.6918 49.2743L62.3105 42.8637L62.3276 54.7697L51.6439 61.2411Z" fill="#FF6B00"/>
</svg>
